<?xml version="1.0" encoding="UTF-8" standalone="no"?>
<!-- Created with Inkscape (http://www.inkscape.org/) -->

<svg
   width="704.86926"
   height="116.01609"
   version="1.1"
   viewBox="0 0 704.86925 116.0161"
   id="svg6"
   sodipodi:docname="Lenovo_Blue.svg"
   inkscape:version="1.4.2 (f4327f4, 2025-05-13)"
   xmlns:inkscape="http://www.inkscape.org/namespaces/inkscape"
   xmlns:sodipodi="http://sodipodi.sourceforge.net/DTD/sodipodi-0.dtd"
   xmlns="http://www.w3.org/2000/svg"
   xmlns:svg="http://www.w3.org/2000/svg">
  <defs
     id="defs6" />
  <sodipodi:namedview
     id="namedview6"
     pagecolor="#ffffff"
     bordercolor="#000000"
     borderopacity="0.25"
     inkscape:showpageshadow="2"
     inkscape:pageopacity="0.0"
     inkscape:pagecheckerboard="0"
     inkscape:deskcolor="#d1d1d1"
     inkscape:zoom="0.5"
     inkscape:cx="598"
     inkscape:cy="55"
     inkscape:window-width="1366"
     inkscape:window-height="705"
     inkscape:window-x="-8"
     inkscape:window-y="-8"
     inkscape:window-maximized="1"
     inkscape:current-layer="svg6" />
  <path
     id="path3-4"
     clip-path="none"
     style="fill:#2569a7;fill-opacity:1;fill-rule:nonzero;stroke:none;stroke-width:5.03217"
     d="M 32.214846,0 C 31.680114,1.8502895 0.93457674,110.20357 0,113.49414 H 45.779298 C 46.27549,111.6859 77.049537,3.2485197 77.964844,0 Z M 141.32227,34.708982 c -40.63964,0 -68.220395,15.070393 -75.677739,41.347658 -3.073505,10.875708 -2.335907,19.607005 2.269533,25.9043 9.133801,12.4474 31.304428,14.15591 43.728516,14.05078 32.61866,-0.26283 49.19993,-6.0757 52.20117,-7.26367 0.28423,-0.91989 7.21635,-17.288672 8.40625,-21.167972 -6.83108,3.264289 -30.88041,14.633092 -48.54102,13.750002 -7.28391,-0.38373 -11.50806,-1.12477 -15.48242,-4.20508 -2.94343,-2.28658 -2.14453,-6.498047 -2.14453,-6.498047 0,0 80.52289,-19.611886 82.06446,-19.90625 0.59735,-1.408743 1.33008,-4.492925 1.33008,-8.177734 0,-5.62446 -1.38794,-10.386903 -4.13868,-14.203125 C 178.71396,39.2934 163.89663,34.708982 141.32227,34.708982 Z m 259.5,0.0039 c -42.0415,0 -70.4885,15.259508 -78.05664,41.857419 -2.71702,9.561582 -1.78175,17.516245 2.71289,23.771489 7.53442,10.26069 24.73165,15.66797 49.77734,15.66797 42.08004,0 70.52717,-15.25426 78.06641,-41.857428 2.72183,-9.561581 1.78734,-17.556776 -2.72657,-23.722656 -7.51033,-10.292234 -24.69884,-15.716794 -49.77343,-15.716794 z m 250.05078,0 c -42.08968,0 -70.54579,15.26011 -78.08985,41.863279 -2.69774,9.572094 -1.82562,17.508432 2.7461,23.763669 7.47179,10.2607 24.69935,15.66993 49.74023,15.66993 42.06559,0 70.52626,-15.25366 78.07032,-41.851568 2.73628,-9.566838 1.7863,-17.562636 -2.73243,-23.728516 -7.49588,-10.292234 -24.7224,-15.716794 -49.73437,-15.716794 z m -385.63672,0.107443 c -22.01555,0 -43.21273,2.891739 -59.3125,5.966794 -0.2216,0.672833 -21.5051,71.614041 -21.88086,72.880861 h 46.19922 c 0.27459,-0.89886 19.35156,-64.35547 19.35156,-64.35547 16.28765,-1.345663 21.01302,0.662524 23.12305,3.458984 1.22362,1.655799 2.13941,3.648414 1.47461,6.066406 l -16.33594,54.83008 h 46.19922 l 17.44336,-58.751954 c 0.38539,-3.348394 -0.48032,-5.881872 -2.26758,-8.257812 -5.93986,-7.842704 -24.24666,-11.837889 -53.99414,-11.837889 z m 193.50586,2.406248 c 0.30831,2.833256 8.52671,74.002027 8.76758,76.267577 h 68.54297 c 0.75633,-1.09335 49.38871,-72.346224 52.05273,-76.267577 h -44.58984 c -0.77561,1.140662 -36.65625,53.480468 -36.65625,53.480468 0,0 -5.82944,-51.241197 -6.07031,-53.480468 z M 135.34766,46.94143 c 7.72712,0 11.55857,2.990836 13.35547,5.482419 1.51748,2.04478 2.93275,5.570844 2.00781,10.34375 L 107.45117,84.830099 113,62.468771 c 2.74592,-9.724533 11.10865,-15.527341 22.34766,-15.527341 z m 258.9668,2.027339 c 5.092,0 8.6612,1.503361 10.89648,4.546877 3.24693,4.425977 3.18938,11.301144 -0.12501,23.054687 -5.15463,18.124427 -11.69188,25.179687 -23.30665,25.179687 -5.09681,0 -8.66212,-1.49842 -10.89257,-4.583983 -3.22767,-4.389181 -3.18339,-11.260129 0.14062,-23.013673 5.16426,-18.1034 11.65789,-25.183595 23.28711,-25.183595 z m 250.00781,0.0058 c 5.08236,0 8.67631,1.4975 10.94531,4.541016 3.19394,4.425977 3.13456,11.301747 -0.18947,23.060547 -5.12572,18.11917 -11.66128,25.173828 -23.25196,25.173828 -5.10163,0 -8.68178,-1.49841 -10.92187,-4.583984 -3.22766,-4.383925 -3.18352,-11.259526 0.13084,-23.007813 5.16907,-18.108657 11.70125,-25.183594 23.28711,-25.183594 z" />
</svg>

